<svg width="9" height="21" viewBox="0 0 9 21" fill="none" xmlns="http://www.w3.org/2000/svg">
<path d="M8.20514 1.09428C7.98011 1.12418 7.85579 1.89527 7.78497 2.12345C7.66066 2.53417 7.54106 3.08967 7.34907 3.61369C7.3475 3.61842 7.34593 3.62156 7.34435 3.62471C7.33019 3.6609 7.31603 3.70025 7.29872 3.74116C7.28141 3.7805 7.2641 3.81827 7.24836 3.85761C7.13506 4.10782 6.96982 4.3958 6.77469 4.50281C6.55281 4.62555 6.16726 4.48392 6.08386 4.2463C5.94695 3.85918 6.15939 3.13373 6.15153 3.10855C6.23493 2.76078 6.46626 1.70328 6.57798 0.995139C6.58585 0.941634 6.65981 0.626904 6.39387 0.519896C6.26955 0.471113 6.10432 0.548222 6.00518 0.743354C5.71248 1.31931 5.27972 2.45077 5.22307 2.63174C5.21678 2.64905 5.21048 2.6695 5.20576 2.68681C5.20576 2.68681 5.20419 2.68996 5.20419 2.69153C5.19317 2.7293 4.90519 3.62943 4.59833 3.88436C4.43782 4.01812 4.10106 4.06691 3.8477 3.81197C3.74699 3.70969 3.70135 3.55232 3.68247 3.39181C3.63998 2.29497 4.22065 1.25479 4.4032 0.733912C4.45513 0.587563 4.7195 0.123336 4.42366 0.0619632C3.97831 -0.0308822 2.89249 1.75521 2.67218 2.17223C2.1277 3.21084 1.77363 4.38164 1.91998 5.56345C2.00181 6.21809 2.34171 6.82709 2.86102 7.21736C3.09077 7.38888 3.35672 7.53996 3.64785 7.66427C2.86574 10.1475 2.03957 12.7362 1.53601 14.165C1.15518 15.2398 0.755474 16.3225 0.47379 17.4288C0.30541 18.0897 0.0882457 18.8734 0.35734 19.5375C0.639024 20.2315 1.63042 20.2126 2.0616 19.5973C2.54629 18.9033 2.70523 17.9859 2.98849 16.5491C3.27174 15.1108 3.68089 13.1547 3.89963 12.102C4.22223 10.5519 4.54955 9.2096 4.86743 7.99002C5.67313 8.08286 6.48829 7.93179 7.06267 7.4062C7.31445 7.17644 7.51431 6.89791 7.67954 6.60049C7.93133 6.15042 8.13275 5.63741 8.23976 5.13227C8.33575 4.66647 8.92902 0.998286 8.20514 1.09428Z" fill="black"/>
</svg>
